<svg width="8" height="6" viewBox="0 0 8 6" fill="none" xmlns="http://www.w3.org/2000/svg">
<path d="M4.4732 4.88663L7.29987 2.05996C7.36236 1.99799 7.41195 1.92425 7.4458 1.84301C7.47964 1.76177 7.49707 1.67464 7.49707 1.58663C7.49707 1.49862 7.47964 1.41148 7.4458 1.33024C7.41195 1.249 7.36236 1.17527 7.29987 1.1133C7.17496 0.989128 7.006 0.919434 6.82987 0.919434C6.65375 0.919434 6.48478 0.989128 6.35987 1.1133L3.99987 3.4733L1.63987 1.1133C1.51496 0.989128 1.346 0.919433 1.16987 0.919433C0.993748 0.919433 0.82478 0.989128 0.699872 1.11329C0.638084 1.17559 0.5892 1.24947 0.556025 1.33069C0.522848 1.41192 0.506031 1.49889 0.506539 1.58663C0.506031 1.67437 0.522848 1.76134 0.556025 1.84257C0.5892 1.92379 0.638084 1.99767 0.699871 2.05996L3.52654 4.88663C3.58851 4.94911 3.66225 4.99871 3.74349 5.03256C3.82473 5.0664 3.91186 5.08383 3.99987 5.08383C4.08788 5.08383 4.17502 5.0664 4.25626 5.03256C4.3375 4.99871 4.41123 4.94911 4.4732 4.88663Z" fill="#252A3B"/>
</svg>
