<svg width="6" height="8" viewBox="0 0 6 8" fill="none" xmlns="http://www.w3.org/2000/svg">
<path d="M4.88712 3.5268L2.06045 0.700129C1.99847 0.637643 1.92474 0.588047 1.8435 0.554201C1.76226 0.520355 1.67512 0.50293 1.58712 0.50293C1.49911 0.50293 1.41197 0.520355 1.33073 0.554201C1.24949 0.588047 1.17576 0.637643 1.11378 0.700129C0.989616 0.825037 0.919922 0.994005 0.919922 1.17013C0.919922 1.34625 0.989616 1.51522 1.11378 1.64013L3.47378 4.00013L1.11378 6.36013C0.989616 6.48504 0.919922 6.65401 0.919922 6.83013C0.919922 7.00625 0.989616 7.17522 1.11378 7.30013C1.17608 7.36192 1.24995 7.4108 1.33118 7.44398C1.4124 7.47715 1.49938 7.49397 1.58712 7.49346C1.67485 7.49397 1.76183 7.47715 1.84305 7.44398C1.92428 7.4108 1.99816 7.36192 2.06045 7.30013L4.88712 4.47346C4.9496 4.41149 4.9992 4.33775 5.03304 4.25651C5.06689 4.17527 5.08431 4.08814 5.08431 4.00013C5.08431 3.91212 5.06689 3.82498 5.03304 3.74374C4.9992 3.6625 4.9496 3.58877 4.88712 3.5268Z" fill="#898DA6"/>
</svg>
