<svg width="16" height="16" viewBox="0 0 16 16" fill="none" xmlns="http://www.w3.org/2000/svg">
<path d="M10.8501 9.41279L8.61926 7.73967V4.33148C8.61926 3.98879 8.34226 3.71179 7.99957 3.71179C7.65688 3.71179 7.37988 3.98879 7.37988 4.33148V8.04954C7.37988 8.24473 7.4716 8.42879 7.62776 8.54529L10.1064 10.4043C10.218 10.488 10.3481 10.5283 10.4776 10.5283C10.6666 10.5283 10.8525 10.4434 10.974 10.2798C11.1798 10.0064 11.124 9.61792 10.8501 9.41279Z" fill="#5254F1"/>
<path d="M8 0C3.58853 0 0 3.58853 0 8C0 12.4115 3.58853 16 8 16C12.4115 16 16 12.4115 16 8C16 3.58853 12.4115 0 8 0ZM8 14.7607C4.27266 14.7607 1.23934 11.7273 1.23934 8C1.23934 4.27266 4.27266 1.23934 8 1.23934C11.728 1.23934 14.7607 4.27266 14.7607 8C14.7607 11.7273 11.7273 14.7607 8 14.7607Z" fill="#5254F1"/>
</svg>
