<svg width="130" height="36" viewBox="0 0 130 36" fill="none" xmlns="http://www.w3.org/2000/svg">
<path d="M0 0H15.1195C21.3981 0 26.4879 5.08982 26.4879 11.3684H11.3684C5.08983 11.3684 0 6.2786 0 0Z" fill="#5254F1"/>
<path d="M0 23.6841H15.1195C21.3981 23.6841 26.4879 18.5943 26.4879 12.3157H11.3684C5.08983 12.3157 0 17.4055 0 23.6841Z" fill="#5254F1"/>
<path d="M0 36C6.00828 36 10.879 31.1293 10.879 25.121V24.6316H0V36Z" fill="#5254F1"/>
<path d="M44.452 13.5515C46.3859 13.5515 48.0382 14.2744 49.4089 15.7202C50.7796 17.1472 51.4649 18.8934 51.4649 20.9588C51.4649 23.0429 50.7796 24.7985 49.4089 26.2255C48.0382 27.6525 46.3859 28.366 44.452 28.366C42.3115 28.366 40.6686 27.5774 39.5232 26.0002V33.6327H36.4814V13.9177H39.5232V15.9455C40.6686 14.3495 42.3115 13.5515 44.452 13.5515ZM40.7906 24.1977C41.6355 25.0426 42.6964 25.4651 43.9732 25.4651C45.25 25.4651 46.3108 25.0426 47.1558 24.1977C48.0007 23.334 48.4232 22.2543 48.4232 20.9588C48.4232 19.6632 48.0007 18.5929 47.1558 17.748C46.3108 16.8843 45.25 16.4524 43.9732 16.4524C42.6964 16.4524 41.6355 16.8843 40.7906 17.748C39.9457 18.5929 39.5232 19.6632 39.5232 20.9588C39.5232 22.2543 39.9457 23.334 40.7906 24.1977Z" fill="white"/>
<path d="M57.2635 16.2835C58.0333 14.5373 59.4791 13.6642 61.6008 13.6642V16.9594C60.4367 16.8843 59.4228 17.1659 58.5591 17.8043C57.6953 18.424 57.2635 19.4567 57.2635 20.9024V27.9999H54.2217V13.9177H57.2635V16.2835Z" fill="white"/>
<path d="M65.5821 22.2543C65.8074 23.3246 66.3238 24.1507 67.1312 24.7328C67.9385 25.2961 68.9243 25.5777 70.0884 25.5777C71.7032 25.5777 72.9143 24.9957 73.7216 23.8315L76.2283 25.2961C74.8388 27.3427 72.7828 28.366 70.0603 28.366C67.7696 28.366 65.9201 27.6713 64.5119 26.2818C63.1036 24.8736 62.3995 23.0993 62.3995 20.9588C62.3995 18.8558 63.0943 17.1002 64.4837 15.692C65.8731 14.265 67.6569 13.5515 69.8349 13.5515C71.9003 13.5515 73.5902 14.2744 74.9045 15.7202C76.2377 17.1659 76.9042 18.9215 76.9042 20.9869C76.9042 21.3061 76.8667 21.7286 76.7916 22.2543H65.5821ZM65.554 19.7759H73.8343C73.6278 18.6305 73.149 17.7668 72.3979 17.1847C71.6656 16.6027 70.8019 16.3116 69.8068 16.3116C68.6802 16.3116 67.7414 16.6214 66.9903 17.2411C66.2393 17.8607 65.7605 18.7056 65.554 19.7759Z" fill="white"/>
<path d="M87.5512 13.5515C89.4852 13.5515 91.1375 14.2744 92.5082 15.7202C93.8789 17.1472 94.5642 18.8934 94.5642 20.9588C94.5642 23.0429 93.8789 24.7985 92.5082 26.2255C91.1375 27.6525 89.4852 28.366 87.5512 28.366C85.4108 28.366 83.7678 27.5774 82.6225 26.0002V33.6327H79.5807V13.9177H82.6225V15.9455C83.7678 14.3495 85.4108 13.5515 87.5512 13.5515ZM83.8899 24.1977C84.7348 25.0426 85.7957 25.4651 87.0724 25.4651C88.3492 25.4651 89.4101 25.0426 90.255 24.1977C91.1 23.334 91.5224 22.2543 91.5224 20.9588C91.5224 19.6632 91.1 18.5929 90.255 17.748C89.4101 16.8843 88.3492 16.4524 87.0724 16.4524C85.7957 16.4524 84.7348 16.8843 83.8899 17.748C83.0449 18.5929 82.6225 19.6632 82.6225 20.9588C82.6225 22.2543 83.0449 23.334 83.8899 24.1977Z" fill="white"/>
<path d="M99.5167 27.7182C99.1036 28.1313 98.6061 28.3378 98.024 28.3378C97.4419 28.3378 96.9444 28.1313 96.5313 27.7182C96.1182 27.3051 95.9117 26.8076 95.9117 26.2255C95.9117 25.6434 96.1088 25.1459 96.5031 24.7328C96.9162 24.3197 97.4232 24.1132 98.024 24.1132C98.6061 24.1132 99.1036 24.3197 99.5167 24.7328C99.9298 25.1459 100.136 25.6434 100.136 26.2255C100.136 26.8076 99.9298 27.3051 99.5167 27.7182Z" fill="white"/>
<path d="M112.863 13.9177H115.905V27.9999H112.863V26.1973C111.943 27.6431 110.488 28.366 108.498 28.366C106.883 28.366 105.578 27.8497 104.583 26.817C103.588 25.7843 103.09 24.3667 103.09 22.5641V13.9177H106.132V22.2543C106.132 23.3058 106.414 24.1132 106.977 24.6765C107.54 25.2397 108.31 25.5214 109.286 25.5214C110.357 25.5214 111.22 25.1928 111.878 24.5356C112.535 23.8597 112.863 22.8364 112.863 21.4657V13.9177Z" fill="white"/>
<path d="M123.095 25.1271H129.939V27.9999H118.955V25.972L125.545 16.7904H119.237V13.9177H129.657V15.9455L123.095 25.1271Z" fill="white"/>
</svg>
