<svg width="130" height="36" viewBox="0 0 130 36" fill="none" xmlns="http://www.w3.org/2000/svg">
<path d="M0 0H15.1195C21.3981 0 26.4879 5.08982 26.4879 11.3684H11.3684C5.08983 11.3684 0 6.2786 0 0Z" fill="#5254F1"/>
<path d="M0 23.6842H15.1195C21.3981 23.6842 26.4879 18.5944 26.4879 12.3158H11.3684C5.08983 12.3158 0 17.4056 0 23.6842Z" fill="#5254F1"/>
<path d="M0 36C6.00828 36 10.879 31.1293 10.879 25.121V24.6316H0V36Z" fill="#5254F1"/>
<path d="M44.452 13.5516C46.3859 13.5516 48.0382 14.2745 49.4089 15.7203C50.7796 17.1473 51.4649 18.8935 51.4649 20.9589C51.4649 23.043 50.7796 24.7986 49.4089 26.2256C48.0382 27.6526 46.3859 28.3661 44.452 28.3661C42.3115 28.3661 40.6686 27.5775 39.5232 26.0003V33.6329H36.4814V13.9178H39.5232V15.9456C40.6686 14.3496 42.3115 13.5516 44.452 13.5516ZM40.7906 24.1978C41.6355 25.0427 42.6964 25.4652 43.9732 25.4652C45.25 25.4652 46.3108 25.0427 47.1558 24.1978C48.0007 23.3341 48.4232 22.2544 48.4232 20.9589C48.4232 19.6633 48.0007 18.5931 47.1558 17.7481C46.3108 16.8844 45.25 16.4526 43.9732 16.4526C42.6964 16.4526 41.6355 16.8844 40.7906 17.7481C39.9457 18.5931 39.5232 19.6633 39.5232 20.9589C39.5232 22.2544 39.9457 23.3341 40.7906 24.1978Z" fill="#252A3B"/>
<path d="M57.2635 16.2836C58.0333 14.5374 59.4791 13.6643 61.6008 13.6643V16.9595C60.4367 16.8844 59.4228 17.1661 58.5591 17.8045C57.6953 18.4241 57.2635 19.4568 57.2635 20.9025V28H54.2217V13.9178H57.2635V16.2836Z" fill="#252A3B"/>
<path d="M65.5821 22.2544C65.8074 23.3247 66.3238 24.1508 67.1312 24.7329C67.9385 25.2962 68.9243 25.5778 70.0884 25.5778C71.7032 25.5778 72.9143 24.9958 73.7216 23.8316L76.2283 25.2962C74.8388 27.3428 72.7828 28.3661 70.0603 28.3661C67.7696 28.3661 65.9201 27.6714 64.5119 26.282C63.1036 24.8737 62.3995 23.0994 62.3995 20.9589C62.3995 18.8559 63.0943 17.1004 64.4837 15.6921C65.8731 14.2651 67.6569 13.5516 69.8349 13.5516C71.9003 13.5516 73.5902 14.2745 74.9045 15.7203C76.2377 17.1661 76.9042 18.9217 76.9042 20.987C76.9042 21.3062 76.8667 21.7287 76.7916 22.2544H65.5821ZM65.554 19.776H73.8343C73.6278 18.6306 73.149 17.7669 72.3979 17.1848C71.6656 16.6028 70.8019 16.3117 69.8068 16.3117C68.6802 16.3117 67.7414 16.6216 66.9903 17.2412C66.2393 17.8608 65.7605 18.7057 65.554 19.776Z" fill="#252A3B"/>
<path d="M87.5512 13.5516C89.4852 13.5516 91.1375 14.2745 92.5082 15.7203C93.8789 17.1473 94.5642 18.8935 94.5642 20.9589C94.5642 23.043 93.8789 24.7986 92.5082 26.2256C91.1375 27.6526 89.4852 28.3661 87.5512 28.3661C85.4108 28.3661 83.7678 27.5775 82.6225 26.0003V33.6329H79.5807V13.9178H82.6225V15.9456C83.7678 14.3496 85.4108 13.5516 87.5512 13.5516ZM83.8899 24.1978C84.7348 25.0427 85.7957 25.4652 87.0724 25.4652C88.3492 25.4652 89.4101 25.0427 90.255 24.1978C91.1 23.3341 91.5224 22.2544 91.5224 20.9589C91.5224 19.6633 91.1 18.5931 90.255 17.7481C89.4101 16.8844 88.3492 16.4526 87.0724 16.4526C85.7957 16.4526 84.7348 16.8844 83.8899 17.7481C83.0449 18.5931 82.6225 19.6633 82.6225 20.9589C82.6225 22.2544 83.0449 23.3341 83.8899 24.1978Z" fill="#252A3B"/>
<path d="M99.5167 27.7183C99.1036 28.1314 98.6061 28.338 98.024 28.338C97.4419 28.338 96.9444 28.1314 96.5313 27.7183C96.1182 27.3053 95.9117 26.8077 95.9117 26.2256C95.9117 25.6436 96.1088 25.146 96.5031 24.7329C96.9162 24.3198 97.4232 24.1133 98.024 24.1133C98.6061 24.1133 99.1036 24.3198 99.5167 24.7329C99.9298 25.146 100.136 25.6436 100.136 26.2256C100.136 26.8077 99.9298 27.3053 99.5167 27.7183Z" fill="#252A3B"/>
<path d="M112.863 13.9178H115.905V28H112.863V26.1975C111.943 27.6432 110.488 28.3661 108.498 28.3661C106.883 28.3661 105.578 27.8498 104.583 26.8171C103.588 25.7844 103.09 24.3668 103.09 22.5643V13.9178H106.132V22.2544C106.132 23.3059 106.414 24.1133 106.977 24.6766C107.54 25.2399 108.31 25.5215 109.286 25.5215C110.357 25.5215 111.22 25.1929 111.878 24.5358C112.535 23.8598 112.863 22.8365 112.863 21.4658V13.9178Z" fill="#252A3B"/>
<path d="M123.095 25.1272H129.939V28H118.955V25.9721L125.545 16.7905H119.237V13.9178H129.657V15.9456L123.095 25.1272Z" fill="#252A3B"/>
</svg>
